<?xml version="1.0" standalone="no"?>
<!DOCTYPE svg PUBLIC "-//W3C//DTD SVG 20010904//EN"
 "http://www.w3.org/TR/2001/REC-SVG-20010904/DTD/svg10.dtd">
<svg version="1.0" xmlns="http://www.w3.org/2000/svg"
 width="561.000000pt" height="445.000000pt" viewBox="0 0 561.000000 445.000000"
 preserveAspectRatio="xMidYMid meet">

<g transform="translate(0.000000,445.000000) scale(0.100000,-0.100000)"
fill="#000000" stroke="none">
<path d="M3435 4153 c-198 -18 -421 -124 -658 -312 -42 -34 -79 -61 -82 -61
-3 0 -59 29 -123 64 -520 286 -970 288 -1188 5 -144 -188 -178 -467 -98 -814
13 -60 27 -121 30 -135 5 -23 -2 -29 -68 -64 -280 -150 -463 -342 -523 -550
-21 -73 -21 -201 0 -280 61 -229 275 -439 607 -595 68 -32 130 -60 139 -64 14
-5 17 -32 22 -194 7 -267 44 -428 136 -583 79 -133 231 -244 370 -270 276 -52
611 89 946 400 47 44 90 80 94 80 5 0 56 -23 115 -50 120 -57 275 -111 386
-136 95 -20 296 -23 370 -5 190 46 335 175 404 359 39 106 49 175 48 344 l-1
158 47 27 c94 53 206 138 278 208 199 197 263 418 184 642 -78 222 -331 445
-659 580 -47 19 -91 39 -97 44 -6 5 -8 29 -3 66 11 84 10 366 -1 450 -12 95
-43 219 -74 294 -78 194 -223 332 -392 373 -69 17 -152 25 -209 19z m215 -216
c202 -97 306 -383 285 -784 -8 -151 -3 -145 -96 -117 -30 9 -125 31 -213 49
l-158 33 -125 126 c-137 138 -286 271 -405 360 -43 32 -78 62 -78 65 0 11 165
132 236 175 153 90 278 128 409 123 72 -3 101 -9 145 -30z m-1610 -79 c112
-26 224 -67 349 -129 75 -37 142 -72 150 -78 12 -8 1 -24 -55 -87 -95 -106
-205 -244 -266 -334 -67 -98 -87 -120 -111 -120 -43 0 -345 -73 -473 -114 -74
-24 -136 -41 -138 -37 -2 3 -11 32 -20 63 -64 222 -64 481 -1 624 30 68 112
156 173 185 98 47 260 58 392 27z m871 -469 c110 -89 256 -225 249 -231 -3 -3
-40 -3 -82 0 -73 4 -77 5 -89 33 -16 41 -90 103 -137 117 -115 35 -243 -13
-292 -108 -19 -37 -22 -39 -84 -45 -35 -4 -69 -6 -75 -4 -13 5 106 160 223
292 l88 98 51 -37 c29 -21 95 -72 148 -115z m328 -430 l133 -12 76 -91 c95
-115 202 -258 277 -372 l59 -88 -32 -92 c-17 -50 -42 -116 -55 -146 l-25 -55
-54 -5 c-208 -17 -325 -248 -222 -437 14 -28 24 -57 21 -65 -19 -48 -162 -259
-181 -266 -35 -13 -458 -32 -545 -24 l-78 6 -143 137 -143 136 17 48 c20 60
20 101 -1 162 -35 106 -147 174 -262 161 l-57 -7 -78 112 -78 111 43 106 c58
146 194 424 273 558 l66 111 113 12 c178 18 180 17 210 -28 39 -58 104 -93
185 -98 59 -4 74 -1 122 24 36 18 67 44 90 76 l35 48 50 -5 c28 -3 110 -11
184 -17z m-1239 -64 c0 -3 -26 -54 -57 -113 -63 -116 -152 -305 -174 -364 -7
-21 -16 -38 -19 -38 -8 0 -94 164 -145 280 -41 93 -44 106 -30 116 21 15 195
72 310 100 98 24 115 27 115 19z m1785 -36 c45 -11 87 -24 95 -29 11 -7 10
-24 -5 -99 -10 -50 -20 -91 -24 -91 -6 1 -173 225 -180 243 -2 6 3 7 14 3 10
-4 55 -16 100 -27z m413 -149 c250 -118 417 -260 490 -417 23 -49 27 -71 27
-149 0 -85 -2 -95 -39 -169 -29 -58 -59 -99 -115 -155 -79 -79 -229 -187 -241
-173 -4 4 -14 37 -24 72 -41 156 -151 413 -255 600 -38 67 -51 102 -48 120 15
82 81 321 89 321 5 0 57 -23 116 -50z m-2749 -156 c32 -72 93 -193 136 -268
l78 -137 -31 -102 c-41 -135 -88 -329 -103 -427 -10 -64 -16 -80 -29 -80 -25
0 -233 108 -310 160 -36 24 -99 78 -141 120 -231 230 -206 489 67 709 91 73
240 163 262 159 7 -2 39 -62 71 -134z m2505 -472 c69 -138 133 -301 171 -437
9 -33 18 -67 21 -76 4 -13 -16 -25 -85 -52 -152 -61 -503 -155 -545 -145 -11
2 -5 19 26 71 l40 67 62 0 c93 0 152 24 217 89 112 112 121 275 22 391 -35 41
-36 43 -23 78 22 61 40 102 45 102 3 0 25 -40 49 -88z m-2105 -203 c40 -56 42
-62 31 -89 -21 -51 -9 -150 26 -206 45 -74 108 -108 204 -113 l78 -3 63 -64
c34 -35 61 -65 58 -68 -8 -8 -331 51 -449 82 -142 38 -170 48 -170 64 0 19 59
308 70 343 5 17 14 49 20 73 6 23 14 42 18 42 4 0 27 -28 51 -61z m2334 -566
c6 -56 -6 -190 -23 -254 -40 -147 -150 -256 -292 -289 -107 -24 -280 -7 -434
45 -93 31 -254 105 -254 117 0 7 85 116 160 204 12 15 35 23 76 28 182 22 472
93 654 160 52 19 98 35 101 35 3 1 9 -20 12 -46z m-2408 -63 c158 -47 475
-100 681 -116 l91 -6 69 -55 c38 -29 111 -83 162 -120 l94 -65 -39 -40 c-21
-22 -69 -66 -108 -97 -365 -300 -699 -361 -879 -160 -108 120 -161 286 -173
547 -7 153 -14 145 102 112z m1308 -134 c-13 -22 -72 -86 -79 -86 -12 0 -124
74 -124 82 0 4 30 9 68 11 37 2 84 4 105 5 30 2 36 -1 30 -12z"/>
</g>
</svg>
