<?xml version="1.0" standalone="no"?>
<!DOCTYPE svg PUBLIC "-//W3C//DTD SVG 20010904//EN"
 "http://www.w3.org/TR/2001/REC-SVG-20010904/DTD/svg10.dtd">
<svg version="1.0" xmlns="http://www.w3.org/2000/svg" viewBox="0 0 512 512" style="height: 512px; width: 512px;">

<path d="M623 1210 c-47 -19 -56 -78 -18 -116 21 -21 25 -34 25 -84 l0 -60
-59 0 -60 0 -3 53 c-3 49 -5 52 -31 55 -15 2 -38 14 -52 28 -13 13 -35 24 -48
24 -31 0 -67 -39 -67 -73 0 -62 80 -90 118 -42 29 37 52 33 52 -10 l0 -34
-102 -3 -103 -3 -3 -67 -3 -68 -61 0 c-53 0 -63 3 -80 26 -28 34 -82 31 -111
-8 -18 -24 -18 -30 -7 -58 24 -57 77 -67 118 -20 24 27 33 30 84 30 l58 0 0
-80 0 -80 -61 0 c-53 0 -64 3 -81 25 -41 52 -121 21 -121 -47 0 -63 73 -89
119 -43 21 21 34 25 84 25 l60 0 0 -59 0 -60 -52 -3 c-50 -3 -53 -5 -56 -31
-2 -15 -14 -38 -28 -52 -13 -13 -24 -35 -24 -48 0 -31 39 -67 73 -67 62 0 90
80 42 118 -37 29 -33 52 10 52 l34 0 3 -77 3 -78 43 -3 42 -3 0 -61 c0 -52 -3
-63 -25 -80 -65 -51 1 -151 74 -113 47 24 55 73 18 108 -27 25 -39 73 -30 117
l6 30 73 0 74 0 0 -61 c0 -53 -3 -64 -25 -81 -52 -41 -21 -121 47 -121 63 0
89 73 43 119 -21 21 -25 34 -25 84 l0 60 59 0 60 0 3 -53 c3 -49 5 -52 31 -55
15 -2 38 -14 52 -28 46 -46 115 -16 115 51 0 62 -80 89 -118 40 -29 -37 -52
-33 -52 10 l0 34 103 3 102 3 3 67 3 68 61 0 c53 0 63 -3 80 -26 28 -34 82
-31 111 8 18 24 18 30 7 58 -7 17 -21 35 -32 41 -28 15 -74 2 -92 -27 -14 -21
-24 -24 -76 -24 l-60 0 0 80 0 80 61 0 c53 0 64 -3 81 -25 28 -35 79 -34 108
2 55 70 -44 153 -104 88 -20 -21 -32 -25 -85 -25 l-61 0 0 59 0 60 53 3 c49 3
52 5 55 31 2 15 14 38 28 52 13 13 24 35 24 48 0 33 -35 67 -70 67 -64 0 -94
-79 -45 -118 37 -29 33 -52 -10 -52 l-34 0 -3 78 -3 77 -42 3 -43 3 0 61 c0
52 3 63 25 80 65 51 -2 151 -75 113 -50 -26 -52 -88 -5 -119 22 -14 25 -24 25
-76 l0 -60 -80 0 -80 0 0 61 c0 53 3 64 25 81 62 48 2 147 -72 118z m58 -46
c17 -21 0 -49 -32 -49 -24 0 -36 23 -25 51 7 19 40 18 57 -2z m190 0 c17 -21
0 -49 -32 -49 -24 0 -36 23 -25 51 7 19 40 18 57 -2z m-463 -126 c2 -20 -2
-28 -19 -33 -29 -9 -53 15 -44 44 10 34 59 25 63 -11z m650 -117 c21 -13 11
-55 -14 -59 -30 -4 -48 21 -34 47 11 22 27 26 48 12z m-148 -311 l0 -300 -300
0 -300 0 0 300 0 300 300 0 300 0 0 -300z m-810 205 c20 -25 8 -50 -25 -50
-21 0 -31 5 -33 18 -4 21 14 47 33 47 7 0 18 -7 25 -15z m1077 -181 c8 -22
-10 -49 -32 -49 -10 0 -22 7 -28 16 -15 24 -1 49 28 49 15 0 28 -7 32 -16z
m-1077 -9 c20 -25 8 -50 -25 -50 -33 0 -45 25 -25 50 16 19 34 19 50 0z m1077
-181 c8 -22 -10 -49 -32 -49 -10 0 -22 7 -28 16 -15 24 -1 49 28 49 15 0 28
-7 32 -16z m-962 -105 c5 -13 1 -27 -8 -36 -21 -21 -57 -8 -57 21 0 29 7 36
36 36 14 0 25 -8 29 -21z m655 -134 c20 -24 3 -57 -28 -53 -30 3 -41 30 -22
53 16 19 34 19 50 0z m-465 -130 c0 -25 -4 -30 -24 -30 -32 0 -49 28 -31 50 7
9 23 15 34 13 16 -2 21 -10 21 -33z m190 0 c0 -25 -4 -30 -24 -30 -32 0 -49
28 -31 50 7 9 23 15 34 13 16 -2 21 -10 21 -33z"/>
<path d="M450 811 c0 -39 -1 -40 -37 -43 -52 -4 -56 -28 -4 -28 40 0 41 -1 41
-33 0 -31 -2 -33 -27 -30 -33 4 -59 -10 -49 -26 4 -6 23 -11 42 -11 31 0 34
-2 34 -30 0 -28 -3 -30 -34 -30 -19 0 -38 -5 -42 -11 -10 -16 16 -30 49 -26
25 3 27 1 27 -30 0 -32 -1 -33 -41 -33 -52 0 -48 -24 4 -28 36 -3 37 -4 37
-43 0 -28 4 -39 15 -39 11 0 15 11 15 40 0 38 2 40 30 40 26 0 30 -4 30 -27 0
-16 4 -34 9 -42 14 -22 31 -3 31 35 0 31 3 34 29 34 27 0 30 -3 33 -37 2 -26
8 -38 18 -38 10 0 16 12 18 38 3 34 6 37 33 37 27 0 29 -2 29 -41 0 -52 24
-49 28 4 3 33 6 36 39 39 53 4 56 28 4 28 -40 0 -41 1 -41 33 0 30 2 32 37 32
53 0 53 29 1 33 -35 3 -38 6 -38 33 0 26 3 29 34 29 19 0 38 5 42 11 10 16
-16 30 -48 26 -26 -3 -28 -1 -28 30 0 32 1 33 41 33 52 0 48 24 -4 28 -36 3
-37 4 -37 43 0 28 -4 39 -15 39 -11 0 -15 -11 -15 -40 0 -38 -2 -40 -30 -40
-26 0 -30 4 -30 28 0 15 -4 33 -9 41 -14 22 -31 3 -31 -35 0 -31 -2 -34 -30
-34 -28 0 -30 3 -30 34 0 38 -17 57 -31 35 -5 -8 -9 -26 -9 -41 0 -24 -4 -28
-30 -28 -28 0 -30 2 -30 40 0 29 -4 40 -15 40 -11 0 -15 -11 -15 -39z m285
-201 l0 -125 -125 0 -125 0 -3 114 c-1 63 0 121 2 128 4 11 33 13 128 11 l123
-3 0 -125z"/>
</g>
</svg>
